<mxfile host="app.diagrams.net" agent="Mozilla/5.0 (Windows NT 10.0; Win64; x64) AppleWebKit/537.36 (KHTML, like Gecko) Chrome/130.0.0.0 Safari/537.36 Edg/130.0.0.0" version="24.8.3">
  <diagram name="Page-1" id="Czwy5R9cp6WNo2frU7xA">
    <mxGraphModel dx="1213" dy="663" grid="1" gridSize="10" guides="1" tooltips="1" connect="1" arrows="1" fold="1" page="1" pageScale="1" pageWidth="850" pageHeight="1100" math="0" shadow="0">
      <root>
        <mxCell id="0" />
        <mxCell id="1" parent="0" />
        <mxCell id="vd-E9_taxdwKmEMfAn4B-2" value="&amp;lt;&amp;lt;Interface&amp;gt;&amp;gt;&lt;div&gt;TriageStrategy&lt;/div&gt;" style="swimlane;fontStyle=1;childLayout=stackLayout;horizontal=1;startSize=30;horizontalStack=0;resizeParent=1;resizeParentMax=0;resizeLast=0;collapsible=1;marginBottom=0;whiteSpace=wrap;html=1;" parent="1" vertex="1">
          <mxGeometry x="350" y="70" width="140" height="60" as="geometry">
            <mxRectangle x="350" y="70" width="120" height="40" as="alternateBounds" />
          </mxGeometry>
        </mxCell>
        <mxCell id="vd-E9_taxdwKmEMfAn4B-3" value="+execute(patient_data)" style="text;strokeColor=none;fillColor=none;align=left;verticalAlign=middle;spacingLeft=4;spacingRight=4;overflow=hidden;points=[[0,0.5],[1,0.5]];portConstraint=eastwest;rotatable=0;whiteSpace=wrap;html=1;fontStyle=1" parent="vd-E9_taxdwKmEMfAn4B-2" vertex="1">
          <mxGeometry y="30" width="140" height="30" as="geometry" />
        </mxCell>
        <mxCell id="vd-E9_taxdwKmEMfAn4B-6" value="&amp;lt;&amp;lt;Class&amp;gt;&amp;gt;&lt;div&gt;UndergoTriage&lt;/div&gt;" style="swimlane;fontStyle=1;childLayout=stackLayout;horizontal=1;startSize=30;horizontalStack=0;resizeParent=1;resizeParentMax=0;resizeLast=0;collapsible=1;marginBottom=0;whiteSpace=wrap;html=1;" parent="1" vertex="1">
          <mxGeometry x="220" y="230" width="140" height="60" as="geometry">
            <mxRectangle x="350" y="70" width="120" height="40" as="alternateBounds" />
          </mxGeometry>
        </mxCell>
        <mxCell id="vd-E9_taxdwKmEMfAn4B-7" value="+execute(patient_data)" style="text;strokeColor=none;fillColor=none;align=left;verticalAlign=middle;spacingLeft=4;spacingRight=4;overflow=hidden;points=[[0,0.5],[1,0.5]];portConstraint=eastwest;rotatable=0;whiteSpace=wrap;html=1;fontStyle=1" parent="vd-E9_taxdwKmEMfAn4B-6" vertex="1">
          <mxGeometry y="30" width="140" height="30" as="geometry" />
        </mxCell>
        <mxCell id="vd-E9_taxdwKmEMfAn4B-8" value="&amp;lt;&amp;lt;Class&amp;gt;&amp;gt;&lt;div&gt;RegisterForTriage&lt;/div&gt;" style="swimlane;fontStyle=1;childLayout=stackLayout;horizontal=1;startSize=30;horizontalStack=0;resizeParent=1;resizeParentMax=0;resizeLast=0;collapsible=1;marginBottom=0;whiteSpace=wrap;html=1;" parent="1" vertex="1">
          <mxGeometry x="480" y="230" width="140" height="60" as="geometry">
            <mxRectangle x="350" y="70" width="120" height="40" as="alternateBounds" />
          </mxGeometry>
        </mxCell>
        <mxCell id="vd-E9_taxdwKmEMfAn4B-9" value="+execute(patient_data)" style="text;strokeColor=none;fillColor=none;align=left;verticalAlign=middle;spacingLeft=4;spacingRight=4;overflow=hidden;points=[[0,0.5],[1,0.5]];portConstraint=eastwest;rotatable=0;whiteSpace=wrap;html=1;fontStyle=1" parent="vd-E9_taxdwKmEMfAn4B-8" vertex="1">
          <mxGeometry y="30" width="140" height="30" as="geometry" />
        </mxCell>
        <mxCell id="vd-E9_taxdwKmEMfAn4B-10" value="" style="endArrow=classic;html=1;rounded=0;" parent="1" target="vd-E9_taxdwKmEMfAn4B-3" edge="1">
          <mxGeometry width="50" height="50" relative="1" as="geometry">
            <mxPoint x="420" y="190" as="sourcePoint" />
            <mxPoint x="450" y="320" as="targetPoint" />
          </mxGeometry>
        </mxCell>
        <mxCell id="me8746UmVBIyesQKjQAT-4" value="&lt;b&gt;1&lt;/b&gt;" style="edgeLabel;html=1;align=center;verticalAlign=middle;resizable=0;points=[];" vertex="1" connectable="0" parent="vd-E9_taxdwKmEMfAn4B-10">
          <mxGeometry x="0.5333" y="-1" relative="1" as="geometry">
            <mxPoint x="-21" y="-4" as="offset" />
          </mxGeometry>
        </mxCell>
        <mxCell id="vd-E9_taxdwKmEMfAn4B-11" value="" style="endArrow=none;html=1;rounded=0;fontStyle=1" parent="1" edge="1">
          <mxGeometry width="50" height="50" relative="1" as="geometry">
            <mxPoint x="290" y="190" as="sourcePoint" />
            <mxPoint x="560" y="190" as="targetPoint" />
          </mxGeometry>
        </mxCell>
        <mxCell id="vd-E9_taxdwKmEMfAn4B-12" value="" style="endArrow=none;html=1;rounded=0;fontStyle=1" parent="1" source="vd-E9_taxdwKmEMfAn4B-6" edge="1">
          <mxGeometry width="50" height="50" relative="1" as="geometry">
            <mxPoint x="430" y="350" as="sourcePoint" />
            <mxPoint x="290" y="190" as="targetPoint" />
          </mxGeometry>
        </mxCell>
        <mxCell id="vd-E9_taxdwKmEMfAn4B-13" value="" style="endArrow=none;html=1;rounded=0;exitX=0.564;exitY=0.044;exitDx=0;exitDy=0;exitPerimeter=0;fontStyle=1" parent="1" source="vd-E9_taxdwKmEMfAn4B-8" edge="1">
          <mxGeometry width="50" height="50" relative="1" as="geometry">
            <mxPoint x="300" y="240" as="sourcePoint" />
            <mxPoint x="560" y="190" as="targetPoint" />
          </mxGeometry>
        </mxCell>
        <mxCell id="vd-E9_taxdwKmEMfAn4B-27" value="" style="group;fontStyle=1" parent="1" vertex="1" connectable="0">
          <mxGeometry x="320" y="440" width="250" height="170" as="geometry" />
        </mxCell>
        <mxCell id="vd-E9_taxdwKmEMfAn4B-21" value="" style="rounded=0;whiteSpace=wrap;html=1;fontStyle=1" parent="vd-E9_taxdwKmEMfAn4B-27" vertex="1">
          <mxGeometry y="10" width="249.99999999999994" height="160" as="geometry" />
        </mxCell>
        <mxCell id="vd-E9_taxdwKmEMfAn4B-22" value="" style="rounded=0;whiteSpace=wrap;html=1;fontStyle=1" parent="vd-E9_taxdwKmEMfAn4B-27" vertex="1">
          <mxGeometry width="249.99999999999994" height="40" as="geometry" />
        </mxCell>
        <mxCell id="vd-E9_taxdwKmEMfAn4B-23" value="&amp;lt;&amp;lt;Class&amp;gt;&amp;gt;&lt;br&gt;&lt;span style=&quot;background-color: initial;&quot;&gt;Patient&lt;/span&gt;&lt;div&gt;&lt;span style=&quot;background-color: initial;&quot;&gt;&lt;br&gt;&lt;/span&gt;&lt;/div&gt;" style="text;html=1;align=center;verticalAlign=middle;whiteSpace=wrap;rounded=0;fontStyle=1" parent="vd-E9_taxdwKmEMfAn4B-27" vertex="1">
          <mxGeometry y="20" width="249.99999999999994" height="20" as="geometry" />
        </mxCell>
        <mxCell id="vd-E9_taxdwKmEMfAn4B-25" value="&lt;span style=&quot;&quot;&gt;-patient_data : dictionary&lt;/span&gt;&lt;div style=&quot;&quot;&gt;-strategy: TriageStrategy&lt;/div&gt;" style="rounded=0;whiteSpace=wrap;html=1;align=left;fontStyle=1" parent="vd-E9_taxdwKmEMfAn4B-27" vertex="1">
          <mxGeometry y="40" width="249.99999999999994" height="60" as="geometry" />
        </mxCell>
        <mxCell id="vd-E9_taxdwKmEMfAn4B-26" value="&lt;div style=&quot;&quot;&gt;+set_strategy(strategy : TriageStrategy)&lt;div&gt;+execute_strategy()&lt;/div&gt;&lt;div&gt;+initiate_actions()&lt;/div&gt;&lt;/div&gt;" style="rounded=0;whiteSpace=wrap;html=1;align=left;fontStyle=1" parent="vd-E9_taxdwKmEMfAn4B-27" vertex="1">
          <mxGeometry y="99.99999999999999" width="249.99999999999994" height="69.99999999999999" as="geometry" />
        </mxCell>
        <mxCell id="vd-E9_taxdwKmEMfAn4B-29" value="1" style="endArrow=open;html=1;endSize=12;startArrow=diamondThin;startSize=14;startFill=0;edgeStyle=orthogonalEdgeStyle;align=left;verticalAlign=bottom;rounded=0;entryX=0.164;entryY=-0.083;entryDx=0;entryDy=0;entryPerimeter=0;fontStyle=1" parent="1" target="vd-E9_taxdwKmEMfAn4B-22" edge="1">
          <mxGeometry x="-0.7295" y="-22" relative="1" as="geometry">
            <mxPoint x="332" y="287" as="sourcePoint" />
            <mxPoint x="362" y="417.98823529411766" as="targetPoint" />
            <Array as="points">
              <mxPoint x="332" y="360" />
              <mxPoint x="362" y="360" />
            </Array>
            <mxPoint as="offset" />
          </mxGeometry>
        </mxCell>
        <mxCell id="me8746UmVBIyesQKjQAT-1" value="&lt;b&gt;1....*&lt;/b&gt;" style="edgeLabel;html=1;align=center;verticalAlign=middle;resizable=0;points=[];" vertex="1" connectable="0" parent="vd-E9_taxdwKmEMfAn4B-29">
          <mxGeometry x="0.6137" y="2" relative="1" as="geometry">
            <mxPoint x="27" y="18" as="offset" />
          </mxGeometry>
        </mxCell>
        <mxCell id="vd-E9_taxdwKmEMfAn4B-30" value="1" style="endArrow=open;html=1;endSize=12;startArrow=diamondThin;startSize=14;startFill=0;edgeStyle=orthogonalEdgeStyle;align=left;verticalAlign=bottom;rounded=0;fontStyle=1;entryX=0.855;entryY=0.045;entryDx=0;entryDy=0;entryPerimeter=0;" parent="1" target="vd-E9_taxdwKmEMfAn4B-22" edge="1">
          <mxGeometry x="-0.7722" y="10" relative="1" as="geometry">
            <mxPoint x="510" y="290" as="sourcePoint" />
            <mxPoint x="534" y="390" as="targetPoint" />
            <Array as="points">
              <mxPoint x="510" y="360" />
              <mxPoint x="534" y="360" />
            </Array>
            <mxPoint as="offset" />
          </mxGeometry>
        </mxCell>
        <mxCell id="me8746UmVBIyesQKjQAT-2" value="&lt;b&gt;1...*&lt;/b&gt;" style="edgeLabel;html=1;align=center;verticalAlign=middle;resizable=0;points=[];" vertex="1" connectable="0" parent="vd-E9_taxdwKmEMfAn4B-30">
          <mxGeometry x="0.6834" y="-1" relative="1" as="geometry">
            <mxPoint x="27" y="4" as="offset" />
          </mxGeometry>
        </mxCell>
      </root>
    </mxGraphModel>
  </diagram>
</mxfile>
